<svg id="Layer_1" data-name="Layer 1" xmlns="http://www.w3.org/2000/svg" viewBox="0 0 375.77 288"><defs><style>.cls-1{fill:none;}.cls-2{fill:#649b89;}.cls-3{fill:#87ceb5;}.cls-4{fill:#7c253f;}.cls-5{fill:#c74669;}</style></defs><polyline class="cls-1" points="239.75 288 223.18 288 186.09 288 185.81 288"/><path class="cls-2" d="M481.56,685.29a35.06,35.06,0,0,1-22.4,18.21,3.91,3.91,0,0,1-1,.13H410a3.93,3.93,0,0,1-3.81-4.86L454.1,503.61l2.82-11.48,13.86-56.47a3.93,3.93,0,0,1,3.81-3h64.09a3.92,3.92,0,0,1,3.81,4.86l-13.4,54.6-2.82,11.48-41,166.86-3.42,14A4.22,4.22,0,0,1,481.56,685.29Z" transform="translate(-334.16 -423)"/><path class="cls-2" d="M702,432l-.08.29-16.18,54.54c-.81,2.72-3.76,4.64-7.16,4.64H481c-4.07,0-7.37-2.73-7.37-6.1V438.1c0-3.37,3.3-6.1,7.37-6.1Z" transform="translate(-334.16 -423)"/><path class="cls-2" d="M435.59,490.72a1,1,0,0,1-1,.74h-60a31,31,0,0,1-12.69-59.38,1.06,1.06,0,0,1,.4-.08h86.43a1,1,0,0,1,.95,1.21Z" transform="translate(-334.16 -423)"/><path class="cls-3" d="M473.74,676.24a35,35,0,0,1-22.48,18.27,3.48,3.48,0,0,1-.9.12H401.57a3.46,3.46,0,0,1-3.36-4.29l48.05-195.73,2.81-11.48,14-56.83a3.47,3.47,0,0,1,3.36-2.63h65a3.46,3.46,0,0,1,3.36,4.28l-13.55,55.18-2.81,11.48-41,166.86-3.44,14A2.89,2.89,0,0,1,473.74,676.24Z" transform="translate(-334.16 -423)"/><path class="cls-3" d="M692.28,423l.72,1.62-16.77,56.55c-1.26.21-2.94,1.3-4.87,1.3H468.09c-2.31,0-4.18-1.55-4.18-3.46V426.46c0-1.91,1.87-3.46,4.18-3.46Z" transform="translate(-334.16 -423)"/><path class="cls-3" d="M426.54,482.55a2,2,0,0,1-2,1.54H365.36a31,31,0,0,1-12.9-59.29,2.07,2.07,0,0,1,.84-.17h84.88a2,2,0,0,1,2,2.5Z" transform="translate(-334.16 -423)"/><path class="cls-4" d="M546.59,652.41l35.52-134.92a3.65,3.65,0,0,0-3.5-4.58l-23.91-.19a3.65,3.65,0,0,0-3.56,2.72L515.61,650.36a3.65,3.65,0,0,0,3.5,4.58l23.92.19A3.66,3.66,0,0,0,546.59,652.41Z" transform="translate(-334.16 -423)"/><path class="cls-4" d="M647.8,620.68l-122.29-.95a2.38,2.38,0,0,0-2.33,1.78l-8,30.39a2.38,2.38,0,0,0,2.29,3l122.29,1a2.39,2.39,0,0,0,2.33-1.78l8-30.39A2.39,2.39,0,0,0,647.8,620.68Z" transform="translate(-334.16 -423)"/><path class="cls-4" d="M546.3,547.72l121.38.95a2.84,2.84,0,0,0,2.76-2.11l7.77-29.51a2.83,2.83,0,0,0-2.72-3.55l-121.38-1a2.83,2.83,0,0,0-2.76,2.11l-7.77,29.51A2.84,2.84,0,0,0,546.3,547.72Z" transform="translate(-334.16 -423)"/><path class="cls-4" d="M678.81,571.11,643.2,706a3.66,3.66,0,0,0,3.5,4.59l23.91.2a3.63,3.63,0,0,0,3.56-2.72l35.61-134.92a3.65,3.65,0,0,0-3.5-4.58l-23.91-.2A3.63,3.63,0,0,0,678.81,571.11Z" transform="translate(-334.16 -423)"/><path class="cls-4" d="M579.22,602.77l119.66,1a3.67,3.67,0,0,0,3.57-2.72l7.35-27.87a3.66,3.66,0,0,0-3.5-4.59l-119.66-1a3.63,3.63,0,0,0-3.56,2.72l-7.36,27.86A3.66,3.66,0,0,0,579.22,602.77Z" transform="translate(-334.16 -423)"/><path class="cls-4" d="M678,675.8l-119.67-1a3.64,3.64,0,0,0-3.56,2.72l-7.35,27.86a3.65,3.65,0,0,0,3.5,4.59l119.66,1a3.65,3.65,0,0,0,3.56-2.72l7.36-27.87A3.66,3.66,0,0,0,678,675.8Z" transform="translate(-334.16 -423)"/><path class="cls-5" d="M539.11,643.87,574.63,509a3.66,3.66,0,0,0-3.5-4.59l-23.92-.18a3.64,3.64,0,0,0-3.56,2.72L508.13,641.82a3.66,3.66,0,0,0,3.5,4.59l23.92.18A3.64,3.64,0,0,0,539.11,643.87Z" transform="translate(-334.16 -423)"/><path class="cls-5" d="M638.69,612.14,519,611.2a3.65,3.65,0,0,0-3.56,2.72l-7.34,27.87a3.65,3.65,0,0,0,3.5,4.58l119.69.94a3.66,3.66,0,0,0,3.56-2.72l7.34-27.87A3.66,3.66,0,0,0,638.69,612.14Z" transform="translate(-334.16 -423)"/><path class="cls-5" d="M538.14,539.18l122.46,1a2.31,2.31,0,0,0,2.25-1.72l8-30.55a2.31,2.31,0,0,0-2.22-2.9l-122.46-1a2.32,2.32,0,0,0-2.25,1.72l-8,30.55A2.3,2.3,0,0,0,538.14,539.18Z" transform="translate(-334.16 -423)"/><path class="cls-5" d="M671.33,562.57,635.72,697.49a3.65,3.65,0,0,0,3.5,4.58l23.91.21a3.66,3.66,0,0,0,3.56-2.72L702.3,564.64a3.65,3.65,0,0,0-3.5-4.58l-23.91-.21A3.65,3.65,0,0,0,671.33,562.57Z" transform="translate(-334.16 -423)"/><path class="cls-5" d="M571.74,594.23l119.66,1a3.63,3.63,0,0,0,3.56-2.72l7.36-27.87a3.65,3.65,0,0,0-3.5-4.58l-119.66-1a3.67,3.67,0,0,0-3.57,2.72l-7.35,27.87A3.65,3.65,0,0,0,571.74,594.23Z" transform="translate(-334.16 -423)"/><path class="cls-5" d="M670.49,667.27l-119.66-1a3.66,3.66,0,0,0-3.56,2.72l-7.36,27.87a3.66,3.66,0,0,0,3.5,4.58l119.67,1a3.64,3.64,0,0,0,3.56-2.72L674,671.85A3.65,3.65,0,0,0,670.49,667.27Z" transform="translate(-334.16 -423)"/></svg>